<?xml version="1.0" encoding="UTF-8" standalone="no"?>
<!-- Created with Inkscape (http://www.inkscape.org/) -->

<svg
   xmlns:dc="http://purl.org/dc/elements/1.1/"
   xmlns:cc="http://creativecommons.org/ns#"
   xmlns:rdf="http://www.w3.org/1999/02/22-rdf-syntax-ns#"
   xmlns:svg="http://www.w3.org/2000/svg"
   xmlns="http://www.w3.org/2000/svg"
   xmlns:xlink="http://www.w3.org/1999/xlink"
   version="1.1"
   width="128"
   height="128"
   id="svg2">
  <defs
     id="defs4" />
  <metadata
     id="metadata7">
    <rdf:RDF>
      <cc:Work
         rdf:about="">
        <dc:format>image/svg+xml</dc:format>
        <dc:type
           rdf:resource="http://purl.org/dc/dcmitype/StillImage" />
        <dc:title></dc:title>
      </cc:Work>
    </rdf:RDF>
  </metadata>
  <rect
     width="128"
     height="128"
     x="1.7854023e-05"
     y="-0.00045162076"
     id="rect3030-7"
     style="fill:#2a2a2a;fill-opacity:1;stroke:none" />
  <path
     d="m 31.160637,74.403702 a 5.1774597,5.1774597 0 1 1 -10.35492,0 5.1774597,5.1774597 0 1 1 10.35492,0 z"
     transform="matrix(1.0925926,0,0,1.0925926,24.845,-16.946152)"
     id="path3781"
     style="fill:#f2f2f2;fill-opacity:1;stroke:none" />
  <path
     d="m 48.575054,56.371643 a 1.1289115,1.1289115 0 1 1 2.074066,-0.892102 1.1289115,1.1289115 0 0 1 -2.074066,0.892102 z"
     id="path3034-1"
     style="fill:#f4f4f4;fill-opacity:1;stroke:none" />
  <path
     d="m 48.056568,56.594691 a 1.6933671,1.6933671 0 1 1 3.111167,-1.338114 1.6933671,1.6933671 0 0 1 -3.111167,1.338114 z"
     id="path3034-1-5"
     style="fill:none;stroke:#eeeeee;stroke-width:0.19816685;stroke-miterlimit:4;stroke-opacity:1;stroke-dasharray:none" />
  <use
     transform="matrix(0.89735364,-0.44131218,0.44131218,0.89735364,-22.932866,30.097774)"
     id="use3039"
     style="opacity:0.75"
     x="0"
     y="0"
     width="16"
     height="16"
     xlink:href="#path3034-1" />
  <use
     transform="matrix(0.65267295,-0.75763976,0.75763976,0.65267295,-30.262151,62.681484)"
     id="use3041"
     style="opacity:0.5"
     x="0"
     y="0"
     width="16"
     height="16"
     xlink:href="#path3034-1" />
  <text
     x="127.84109"
     y="70.008507"
     id="text3050"
     xml:space="preserve"
     style="font-size:15.88627434px;font-style:normal;font-variant:normal;font-weight:bold;font-stretch:normal;text-align:end;line-height:125%;letter-spacing:0px;word-spacing:0px;writing-mode:lr-tb;text-anchor:end;fill:#f2f2f2;fill-opacity:1;stroke:none;font-family:Quicksand;-inkscape-font-specification:Quicksand Bold"><tspan
       x="88.514816"
       y="70.008507"
       id="tspan3052"
       style="font-size:15.88627434px;font-style:normal;font-variant:normal;font-weight:bold;font-stretch:normal;text-align:end;line-height:125%;writing-mode:lr-tb;text-anchor:end;fill:#f2f2f2;fill-opacity:1;font-family:Quicksand;-inkscape-font-specification:Quicksand Bold">rbit</tspan></text>
</svg>
