<svg xmlns="http://www.w3.org/2000/svg" width="512" height="512">
    <path d="m427.68 398.273-19.294 29.103 20.7 13.397-71.555 102.72 104.137 67.316-5.366 7.139 16.437 10.718 5.688-8.562 89.522 54.129 77.274-118.813 23.237 11.803 20.343-29.647zm16.407 49.282 184.015 100.37-66.216 100.96-72.022-40.937 5.719-8.563-17.844-9.281-5.718 7.125-90.9-58z" style="fill:#4d4d4d;stroke:#000;stroke-width:1px;stroke-linecap:butt;stroke-linejoin:miter;stroke-opacity:1" transform="translate(-256 -284.362)"/>
    <path transform="translate(-256 -256)" d="M433.571 391.857 660.357 516.5" style="fill:none;stroke:#fff;stroke-width:1.39999998;stroke-linecap:butt;stroke-linejoin:miter;stroke-miterlimit:4;stroke-opacity:1;stroke-dasharray:4.19999993,4.19999993;stroke-dashoffset:0"/>
    <path d="m478.984 601.566-9.501 5.596 6.104 3.609-3.935 5.15 9.522-5.05-6.648-3.45z" style="fill:#fff;stroke:none" transform="translate(-256 -284.362)"/>
</svg>
