<?xml version="1.0" encoding="UTF-8" standalone="no"?>
<!-- Created with Inkscape (http://www.inkscape.org/) -->

<svg
   xmlns:dc="http://purl.org/dc/elements/1.1/"
   xmlns:cc="http://creativecommons.org/ns#"
   xmlns:rdf="http://www.w3.org/1999/02/22-rdf-syntax-ns#"
   xmlns:svg="http://www.w3.org/2000/svg"
   xmlns="http://www.w3.org/2000/svg"
   version="1.1"
   width="32"
   height="32"
   id="svg2">
  <defs
     id="defs4" />
  <metadata
     id="metadata7">
    <rdf:RDF>
      <cc:Work
         rdf:about="">
        <dc:format>image/svg+xml</dc:format>
        <dc:type
           rdf:resource="http://purl.org/dc/dcmitype/StillImage" />
        <dc:title></dc:title>
      </cc:Work>
    </rdf:RDF>
  </metadata>
  <path
     d="m 11,6.0000438 a 5,5 0 1 0 -10,0 5,5 0 0 0 10,0 z"
     id="path3034"
     style="fill:#eeeeee;fill-opacity:1;stroke:none" />
  <path
     d="m 23,6.0000438 a 5,5 0 1 0 -10,0 5,5 0 0 0 10,0 z"
     id="path3034-8"
     style="fill:#aaaaaa;fill-opacity:1;stroke:none" />
  <path
     d="m 3.0000001,13.999989 a 1,1 0 1 0 -2.0000001,0 1,1 0 0 0 2.0000001,0 z"
     id="path3034-1"
     style="fill:#eeeeee;fill-opacity:1;stroke:none" />
  <path
     d="m 7.5,14.000033 a 1.5,1.5 0 1 0 -3,0 1.5,1.5 0 0 0 3,0 z"
     id="path3034-1-5"
     style="fill:none;stroke:#eeeeee;stroke-width:0.20000002;stroke-miterlimit:4;stroke-opacity:1;stroke-dasharray:none" />
  <path
     d="m 11,13.999989 a 1,1 0 1 0 -2,0 1,1 0 0 0 2,0 z"
     id="path3034-1-50"
     style="fill:#888888;fill-opacity:1;stroke:none" />
  <path
     d="m 15,13.999989 a 1,1 0 1 0 -2,0 1,1 0 0 0 2,0 z"
     id="path3034-1-50-6"
     style="fill:#eeeeee;fill-opacity:1;stroke:none" />
  <path
     d="M 5.84375,17 C 3.2782873,17.08021 0.99874642,19.433284 1,22 c 0,2.617994 2.3820062,4.999998 5,4.999998 2.6179938,0 5,-2.382004 5,-4.999998 0.0013,-2.6709 -2.4866546,-5.083466 -5.15625,-5 z m -0.9854394,2.78125 c 0.1913142,-0.110455 3.8125,1.997839 3.8125,2.21875 0,0.22091 -3.6211858,2.329205 -3.8125,2.21875 -0.1913142,-0.110456 -0.1913142,-4.327045 0,-4.4375 z"
     id="use2995"
     style="fill:#eeeeee;fill-opacity:1;stroke:none" />
</svg>
