<svg xmlns="http://www.w3.org/2000/svg" xmlns:xlink="http://www.w3.org/1999/xlink" width="128" height="16">
    <g transform="translate(0 -1036.362)">
        <g transform="translate(-22.147 71.25)">
            <path d="m58.475 965.472-.687.375 1.156 5.625H57.1l-1.656-2.531-.781.218v3.953h14.969l-1.313-1.297-.25-.125-3.344-.375z" id="a" style="font-size:medium;font-style:normal;font-variant:normal;font-weight:400;font-stretch:normal;text-indent:0;text-align:start;text-decoration:none;line-height:normal;letter-spacing:normal;word-spacing:normal;text-transform:none;direction:ltr;block-progression:tb;writing-mode:lr-tb;text-anchor:start;baseline-shift:baseline;color:#000;fill:#000;fill-opacity:1;fill-rule:nonzero;stroke:none;stroke-width:.84269017;marker:none;visibility:visible;display:inline;overflow:visible;enable-background:accumulate;font-family:Sans;-inkscape-font-specification:Sans"/>
            <use transform="matrix(1 0 0 -1 0 1946.225)" style="fill:#000" width="16" height="16" xlink:href="#a"/>
        </g>
        <g transform="translate(23.38 48.373) scale(.99895)">
            <path d="m35.973 997.037-5.517-8.009-.949 1.31 1.483 2.19-1.465 2.242.638.913-.828 1.354z" id="b" style="fill:#000;fill-opacity:1;stroke:none"/>
            <use transform="matrix(1 0 0 -1 0 1994.074)" width="16" height="16" xlink:href="#b"/>
        </g>
        <g transform="matrix(1.00003 0 0 1 -87.182 51.656)">
            <path d="M100.543 992.706c0-.886-2.338-.984-4.151-.984l-1.505-7.016h-1.395l.465 7.016H91.61l-.813-2.303h-.98l.465 3.287z" id="c" style="fill:#000;stroke:none"/>
            <use transform="matrix(1 0 0 -1 0 1985.411)" width="16" height="16" xlink:href="#c"/>
        </g>
        <g transform="translate(-37.792 42.194)">
            <path d="M66.757 1002.168c0-.792-3.215-.734-4.162-.734l-.831-7.266h-1.285l.464 7.266H58.08l-.234-1.974h-1.019l.234 2.708z" id="d" style="fill:#000;stroke:none"/>
            <use transform="matrix(1 0 0 -1 0 2004.336)" width="16" height="16" xlink:href="#d"/>
        </g>
        <g transform="translate(22.473 27.44) scale(.99996)">
            <path d="m52.553 1016.96-4.943-7.726-.776-.275-.33.776 1.646 4.628-.687 2.524v.073z" id="e" style="fill:#000;stroke:none"/>
            <use transform="matrix(1 0 0 -1 0 2033.92)" width="16" height="16" xlink:href="#e"/>
        </g>
        <path id="f" style="opacity:.1;fill:#000;fill-opacity:1;stroke:none" d="M0 1054.362h16v16H0z"/>
        <use transform="translate(16)" width="128" height="128" xlink:href="#f"/>
        <use transform="translate(32)" width="128" height="128" xlink:href="#f"/>
        <use transform="translate(48)" width="128" height="128" xlink:href="#f"/>
        <use transform="translate(64)" width="128" height="128" xlink:href="#f"/>
    </g>
</svg>
