<svg xmlns="http://www.w3.org/2000/svg" width="128" height="32">
    <path style="fill:#000;fill-opacity:0;stroke:none" d="M16 1020.362h32v32H16zm32 0h24v24H48zm24 0h16v16H72zm16 0h8v8h-8z" transform="translate(0 -1020.362)"/>
    <path style="fill:#fff;fill-opacity:1;stroke:none" d="M37.881 39.535a6.578 6.578 0 1 1-13.156 0 6.578 6.578 0 1 1 13.156 0z" transform="translate(.862 14.985) scale(.22803)"/>
    <path style="fill:none;stroke:#f6f6f6;stroke-width:1.5;stroke-linecap:butt;stroke-linejoin:round;stroke-miterlimit:4;stroke-opacity:1;stroke-dasharray:none" d="m8 1022.112 5.25 12.5-5.25-2.134-5.25 2.134z" transform="translate(0 -1020.362)"/>
    <path style="fill:none;stroke:#f6f6f6;stroke-width:.55418383999999998;stroke-linecap:square;stroke-linejoin:round;stroke-miterlimit:4;stroke-opacity:1;stroke-dasharray:none" d="M70.324 61.023c-.46.5-2.976 2.013-3.495 2.429-.518.416-1.357 1.252-1.94 1.566-.584.314-3.266-.107-3.935.016-.67.124-2.304 1.598-2.97 1.664-.666.065-3.062-.48-3.71-.586-.647-.107-2.34-.285-2.959-.532-.619-.248-1.624-.82-2.213-1.136-.59-.316-2.336-1.446-2.852-1.868-.515-.423-2.218-3.097-2.625-3.642-.406-.544-1.626-1.566-1.963-2.15-.337-.583.908-1.705.733-2.346-.176-.64-2.403-2.951-2.475-3.621-.072-.67.636-1.983.765-2.644.13-.66.569-3.877.767-4.52.2-.642 1.485-1.82 1.847-2.376.362-.555.682-1.944 1.164-2.417.482-.473 2.99-.329 3.494-.747.504-.419.965-3.048 1.572-3.287.606-.238 3.619-.457 4.276-.62.657-.163 2.318-1.604 2.97-1.664.651-.06 1.373 2.138 2.027 2.268.655.13 4.03-1.389 4.641-1.15.612.24 1.342 2 1.9 2.384.557.382 2.69.845 3.193 1.263.503.418.579 3.074.943 3.641.364.568 1.666 1.54 1.963 2.15.297.612.746 1.723.95 2.347.203.623.708 2.297.765 2.978.056.681-.625 2.616-.738 3.287-.112.671 1.113 3.868.915 4.52-.198.65-3.175 1.82-3.528 2.375-.353.555.976 1.918.518 2.418z" transform="matrix(.912 0 0 .89257 -19.65 -28.291)"/>
    <path style="fill:none;stroke:#f6f6f6;stroke-width:.74944018999999984;stroke-linecap:square;stroke-linejoin:round;stroke-miterlimit:4;stroke-opacity:1;stroke-dasharray:none" d="M70.324 61.023c-.487.53-3.892.908-4.437 1.341-.544.434-1.742 1.973-2.408 2.226-.665.253-2.672.712-3.354.899-.681.186-2.883 1.569-3.598 1.527-.715-.041-2.26-.693-2.936-.841-.676-.148-2.712-.999-3.353-1.318-.642-.32-1.868-2.423-2.454-2.815-.587-.392-2.918-1.125-3.43-1.616-.51-.492.044-1.904-.282-2.547-.327-.643-2.921-2.076-3.171-2.739-.25-.663-.334-3.53-.445-4.225-.11-.695.357-1.3.436-1.997.079-.697.851-2.579 1.076-3.26.225-.682-.423-3.984-.034-4.576.388-.591 2.198-.48 2.684-1.006.486-.526 2.496-2.46 3.05-2.907.554-.447 2.862-.932 3.535-1.179.672-.247 1.313-1.77 1.996-1.923.682-.153 2.64-.738 3.353-.756.712-.018 2.59-.565 3.26-.376.67.19 2.428 1.633 3.11 1.88.681.248 3 1.449 3.535 1.902.535.453 2.689 2.267 3.153 2.821.465.555 1.51 1.892 1.86 2.499.35.606.955 1.756 1.175 2.435.22.68 1.078 3.2 1.125 3.916.048.715-1.07 2.795-1.143 3.488-.074.693-.075 2.902-.25 3.58-.176.679-1.603 1.81-1.963 2.411-.36.6.397 2.625-.09 3.156z" transform="matrix(.67502 0 0 .6594 21.453 -20.941)"/>
    <path style="fill:none;stroke:#f6f6f6;stroke-width:1.16096841999999989;stroke-linecap:square;stroke-linejoin:round;stroke-miterlimit:4;stroke-opacity:1;stroke-dasharray:none" d="M70.324 61.023c-.52.565-3.943 1.444-4.58 1.88-.636.437-1.894 2.436-2.577 2.745-.684.309-3.197.033-3.954.161-.757.129-1.9 1.785-2.644 1.702-.743-.083-3.278-1.368-4.03-1.545-.75-.177-2.454-.829-3.123-1.182-.67-.352-1.795-2.726-2.395-3.214-.6-.489-2.812-1.156-3.22-1.77-.407-.613-.488-2.723-.764-3.427-.276-.703-1.787-2.874-1.871-3.642-.084-.769-.796-2.999-.773-3.767.023-.767 1.002-3.224 1.225-3.948.223-.723 1.648-2.836 1.971-3.507.324-.672.328-2.114.874-2.649.545-.535 2.25-1.48 2.897-1.88.646-.4 1.873-1.389 2.55-1.706.677-.318 3.19-.093 3.954-.161.765-.068 3.578-1.763 4.325-1.703.748.06 3.29 1.356 4.03 1.546.74.19 2.128-.3 2.782.104.654.404 2.183 2.766 2.764 3.253.581.488 2.812 1.131 3.22 1.77.408.638.523 2.729.764 3.427.242.698 1.759 2.892 1.871 3.642.113.75-.933 2.356-.936 3.124-.004.767.73 3.895.484 4.59-.247.695-1.624 2.845-1.971 3.508-.348.664-.354 2.083-.873 2.649z" transform="matrix(.43627 0 0 .42515 55.128 -13.454)"/>
    <path style="fill:none;stroke:#f6f6f6;stroke-width:2.58955811999999996;stroke-linecap:square;stroke-linejoin:round;stroke-miterlimit:4;stroke-opacity:1;stroke-dasharray:none" d="M70.324 61.023c-.557.606-3.22 1.707-3.899 2.152-.68.446-2.54 2.564-3.296 2.887-.757.324-3.695-.196-4.49-.167-.795.03-3.535.882-4.336.72-.802-.16-2.44-2.26-3.166-2.598-.724-.338-3.491-.482-4.13-.983-.638-.5-.801-1.54-1.365-2.15-.564-.608-3.58-2.853-3.904-3.574-.323-.721-.794-2.87-.992-3.638-.197-.767-.808-3.624-.768-4.447.04-.823.728-2.305.932-3.074.204-.77 1.066-3.223 1.404-3.965.339-.742 1.748-1.51 2.304-2.11.556-.6 2.525-3.469 3.212-3.909.687-.44 3.25-.513 4.029-.738.78-.225 2.862-1.992 3.65-2.047.788-.056 1.996.702 2.783.772.787.07 3.77.641 4.49.977.72.336 2.596 1.461 3.277 1.923.681.463 2.728 1.746 3.232 2.37.504.625 1.273 2.621 1.651 3.35.379.729 2.93 1.786 3.08 2.564.152.778-.315 4.328-.363 5.137-.049.808-.076 2.68-.257 3.453-.181.773-2.054 3.355-2.487 4.052-.432.696-.035 2.437-.591 3.043z" transform="matrix(.19075 0 0 .19545 81.125 -5.774)"/>
</svg>
