<svg xmlns="http://www.w3.org/2000/svg" xmlns:xlink="http://www.w3.org/1999/xlink" width="128" height="16">
    <g transform="translate(0 -1036.362)">
        <rect style="fill-opacity:1;fill-rule:nonzero;stroke:none" id="a" width="15" height="15" x="-29" y="1036.362" rx="1.875"/>
        <use xlink:href="#a" transform="translate(77.5 .5)" width="256" height="64" style="fill:#ff4545;fill-opacity:1"/>
        <use xlink:href="#a" transform="translate(109.5 .5)" width="256" height="64" style="fill:#59d159;fill-opacity:1"/>
        <use xlink:href="#a" transform="translate(61.5 .5)" width="256" height="64" style="fill:#3771c8"/>
        <use xlink:href="#a" transform="translate(141.5 .5)" width="256" height="64" style="fill:#ffbb2e;fill-opacity:1"/>
        <use xlink:href="#a" transform="translate(93.5 .5)" width="256" height="64" style="fill:#fff924;fill-opacity:1"/>
        <use xlink:href="#a" transform="translate(125.5 .5)" width="256" height="64" style="fill:#f300f4;fill-opacity:1"/>
        <g style="font-size:14.27702522px;font-style:normal;font-weight:400;line-height:125%;letter-spacing:0;word-spacing:0;fill:#e6e6e6;fill-opacity:1;stroke:none;font-family:Sans" id="c">
            <path d="M747.62 705.84c.427.442.745.912.955 1.409.213.52.32 1.076.32 1.666a4.3 4.3 0 0 1-.32 1.645 4.476 4.476 0 0 1-2.35 2.35c-.502.213-1.05.32-1.645.32-.618 0-1.166-.107-1.645-.32a4.691 4.691 0 0 1-1.394-.942 4.422 4.422 0 0 1-.955-1.408 4.288 4.288 0 0 1-.321-1.645c0-.59.107-1.146.32-1.666.219-.52.537-.99.956-1.408l.244-.244h-2.3v-1.186h3.875l.446.447v3.876h-1.185v-2.3l-.244.243a3.18 3.18 0 0 0-.697 1.025c-.153.376-.23.78-.23 1.213 0 .418.077.816.23 1.192.153.376.383.718.69 1.025.298.293.637.52 1.018.683.362.153.764.23 1.206.23a2.87 2.87 0 0 0 1.178-.23 3.49 3.49 0 0 0 1.018-.683 3.09 3.09 0 0 0 .69-1.025 3.13 3.13 0 0 0 .23-1.192 3.19 3.19 0 0 0-.23-1.213 2.916 2.916 0 0 0-.697-1.025" style="fill:#e6e6e6" transform="rotate(-48.086 870.639 1365.313) scale(.71758)"/>
        </g>
        <rect style="fill-opacity:1;fill-rule:nonzero;stroke:none" id="b" width="2" height="2" x="-3.76" y="1049.26" rx=".3"/>
        <g transform="translate(1 16)">
            <use style="fill:#ff4545;fill-opacity:1" height="64" width="256" transform="translate(23.26 -16.145)" xlink:href="#b"/>
            <use style="fill:#59d159;fill-opacity:1" height="64" width="256" transform="translate(28.26 -16.145)" xlink:href="#b"/>
            <use style="fill:#3771c8" height="64" width="256" transform="translate(20.76 -16.145)" xlink:href="#b"/>
            <use style="fill:#fff924;fill-opacity:1" height="64" width="256" transform="translate(25.76 -16.145)" xlink:href="#b"/>
            <use style="fill:#f779f4;fill-opacity:1" height="64" width="256" transform="translate(30.76 -16.145)" xlink:href="#b"/>
        </g>
        <g transform="translate(.348 16)">
            <use style="fill:#ff4545;fill-opacity:1" height="64" width="256" transform="translate(9.162 -16.145)" xlink:href="#b"/>
            <use style="fill:#59d159;fill-opacity:1" height="64" width="256" transform="translate(14.162 -16.145)" xlink:href="#b"/>
            <use style="fill:#3771c8" height="64" width="256" transform="translate(6.662 -16.145)" xlink:href="#b"/>
            <use style="fill:#fff924;fill-opacity:1" height="64" width="256" transform="translate(11.662 -16.145)" xlink:href="#b"/>
        </g>
        <use xlink:href="#c" transform="translate(16)" width="128" height="32" style="fill:#e6e6e6"/>
    </g>
</svg>
