<svg xmlns="http://www.w3.org/2000/svg" xmlns:xlink="http://www.w3.org/1999/xlink" width="128" height="64">
    <defs>
        <radialGradient xlink:href="#a" id="c" cx="8" cy="948.362" fx="8" fy="948.362" r="7.5" gradientUnits="userSpaceOnUse" gradientTransform="translate(-11.909 -1331.737) scale(2.4886)"/>
        <linearGradient id="a">
            <stop style="stop-color:#aaa;stop-opacity:1" offset="0"/>
            <stop style="stop-color:#464646;stop-opacity:1" offset="1"/>
        </linearGradient>
    </defs>
    <g transform="translate(0 -988.362)">
        <path style="opacity:.8;fill-opacity:1;fill-rule:nonzero;stroke:none" id="b" d="M-29 987.362h16v16h-16z"/>
        <use xlink:href="#b" transform="translate(93 1)" width="256" height="64" style="fill:#ff4e4e;fill-opacity:1"/>
        <use xlink:href="#b" transform="translate(141 1)" width="256" height="64" style="fill:#59d159;fill-opacity:1"/>
        <use xlink:href="#b" transform="translate(61 1)" width="256" height="64" style="fill:#3771c8"/>
        <use xlink:href="#b" transform="translate(109 1)" width="256" height="64" style="fill:#ff9b2a;fill-opacity:1"/>
        <use xlink:href="#b" transform="translate(29 1)" width="256" height="64" style="fill:#333"/>
        <use xlink:href="#b" transform="translate(45 1)" width="256" height="64" style="fill:#f2f2f2"/>
        <use xlink:href="#b" transform="translate(125 1)" width="256" height="64" style="fill:#fffe24;fill-opacity:1"/>
        <use xlink:href="#b" transform="translate(77 1)" width="256" height="64" style="fill:#d73af3;fill-opacity:1"/>
        <rect style="opacity:.69668244;fill:url(#c);fill-opacity:1;fill-rule:nonzero;stroke:#000;stroke-width:.99999994;stroke-opacity:1" width="14" height="14" x="1" y="1021.362" rx="2.8" ry="2.8"/>
        <path d="M2.433 959.76c0 .161-.05.3-.148.418a.45.45 0 0 1-.372.176.485.485 0 0 1-.39-.176.628.628 0 0 1-.148-.418.67.67 0 0 1 .148-.427c.1-.124.23-.186.39-.186.155 0 .279.062.372.186a.664.664 0 0 1 .148.427M0 959.862c0-.966.164-1.706.492-2.22.335-.52.802-.78 1.403-.78.607 0 1.074.26 1.402.78.328.514.492 1.254.492 2.22 0 .966-.164 1.71-.492 2.23-.328.513-.795.77-1.402.77-.6 0-1.068-.257-1.403-.77-.328-.52-.492-1.264-.492-2.23m3.01 0c0-.316-.02-.613-.056-.891a2.961 2.961 0 0 0-.186-.743 1.312 1.312 0 0 0-.344-.502.778.778 0 0 0-.53-.186.778.778 0 0 0-.529.186 1.312 1.312 0 0 0-.343.502c-.087.21-.149.458-.186.743a6.755 6.755 0 0 0-.056.891c0 .316.019.616.056.901.037.279.099.523.186.734.086.21.2.378.343.501a.778.778 0 0 0 .53.186c.21 0 .387-.062.53-.186.142-.123.256-.29.343-.501.086-.21.148-.455.186-.734.037-.285.055-.585.055-.9m5.194-1.682a5.57 5.57 0 0 0 .92-.464c.297-.192.572-.434.826-.725h.539v5.1h1.086v.65H8.481v-.65h1.245v-4.032a2.377 2.377 0 0 1-.25.195 3.564 3.564 0 0 1-.317.186 5.25 5.25 0 0 1-.352.177 3.328 3.328 0 0 1-.363.139l-.241-.576m11.249.279c0 .198-.04.39-.12.576a2.552 2.552 0 0 1-.307.548 4.71 4.71 0 0 1-.427.529 19.17 19.17 0 0 1-.493.51c-.093.094-.201.205-.325.335-.124.13-.241.263-.353.4a2.928 2.928 0 0 0-.278.399.705.705 0 0 0-.112.334h2.647v.65h-3.483a.472.472 0 0 1-.01-.092v-.103c0-.26.044-.501.131-.724.087-.223.198-.434.334-.632a4.36 4.36 0 0 1 .455-.557c.174-.18.344-.353.511-.52.136-.136.267-.27.39-.4.13-.13.242-.26.335-.39.099-.13.176-.263.232-.399.062-.142.093-.288.093-.436a.992.992 0 0 0-.084-.428.718.718 0 0 0-.213-.288.796.796 0 0 0-.307-.176 1.465 1.465 0 0 0-.827.01c-.13.043-.247.095-.352.157a2.36 2.36 0 0 0-.26.186c-.075.056-.13.102-.168.14l-.38-.54a1.974 1.974 0 0 1 .575-.427c.143-.074.3-.136.474-.186.173-.049.36-.074.557-.074.6 0 1.044.14 1.328.418.291.273.437.666.437 1.18m6.067 3.724c.489 0 .835-.096 1.04-.288.21-.198.316-.461.316-.79 0-.21-.044-.386-.13-.529a1.014 1.014 0 0 0-.344-.343 1.506 1.506 0 0 0-.492-.186 2.983 2.983 0 0 0-.585-.056h-.196v-.622h.27c.136 0 .275-.012.418-.037.148-.031.282-.08.4-.149a.854.854 0 0 0 .296-.297.91.91 0 0 0 .112-.474c0-.315-.1-.538-.297-.668a1.141 1.141 0 0 0-.678-.205c-.267 0-.493.04-.678.121a2.714 2.714 0 0 0-.465.232l-.297-.585c.13-.093.325-.189.585-.288a2.38 2.38 0 0 1 .882-.158c.304 0 .564.037.78.112.217.074.394.18.53.315.142.137.248.298.316.483.068.18.102.378.102.595 0 .303-.08.56-.241.77a1.507 1.507 0 0 1-.604.484c.297.086.554.257.77.51.217.248.326.58.326.994 0 .248-.044.48-.13.697-.08.21-.208.393-.381.548a1.724 1.724 0 0 1-.66.362c-.266.087-.585.13-.956.13a2.83 2.83 0 0 1-.446-.037 2.77 2.77 0 0 1-.418-.084 7.027 7.027 0 0 1-.353-.092c-.099-.038-.17-.065-.213-.084l.148-.66c.1.05.257.109.474.177a2.7 2.7 0 0 0 .799.102m6.354-1.43c.105-.248.248-.533.427-.855.186-.322.393-.653.623-.993.229-.347.473-.685.733-1.013.26-.334.524-.635.79-.9h.743v3.65h.678v.63h-.678v1.468h-.743v-1.467h-2.573v-.52m2.573-2.852c-.167.18-.338.378-.511.595-.167.217-.331.446-.492.687a10.62 10.62 0 0 0-.455.725c-.137.247-.26.492-.372.733h1.83v-2.74m6.786 1.31c.83.031 1.434.214 1.811.548.378.334.567.783.567 1.347 0 .254-.04.489-.12.706a1.388 1.388 0 0 1-.382.557 1.73 1.73 0 0 1-.65.362c-.26.087-.57.13-.929.13-.148 0-.297-.012-.445-.037a3.99 3.99 0 0 1-.41-.074 5.209 5.209 0 0 1-.343-.093 1.529 1.529 0 0 1-.213-.093l.148-.66c.1.05.251.109.455.177a2.6 2.6 0 0 0 .79.102c.248 0 .455-.028.622-.083.167-.056.3-.13.4-.223.105-.1.18-.21.222-.335a1.04 1.04 0 0 0 .075-.39c0-.21-.037-.396-.112-.557a.887.887 0 0 0-.371-.418c-.174-.111-.415-.195-.725-.25a5.915 5.915 0 0 0-1.151-.094c.037-.272.065-.526.083-.761.025-.242.044-.474.056-.697.018-.229.03-.455.037-.678l.037-.706h2.768v.65h-2.1c-.005.087-.015.202-.027.344-.006.136-.015.282-.028.437l-.037.445c-.012.143-.022.257-.028.344m6.791 1.226c0-.557.075-1.05.223-1.477a3.01 3.01 0 0 1 .65-1.086 2.856 2.856 0 0 1 1.031-.67 3.916 3.916 0 0 1 1.366-.24l.065.65a4.02 4.02 0 0 0-.901.111 2.02 2.02 0 0 0-.716.316c-.21.142-.387.328-.529.557-.142.23-.25.51-.325.845a2.77 2.77 0 0 1 .483-.167 2.41 2.41 0 0 1 .567-.065c.322 0 .594.05.817.149.229.099.412.232.548.399.136.161.235.35.297.567.062.216.093.44.093.668 0 .21-.034.428-.102.65a1.945 1.945 0 0 1-.316.604 1.7 1.7 0 0 1-.548.446c-.223.111-.49.167-.799.167-.638 0-1.114-.213-1.43-.64-.316-.428-.474-1.022-.474-1.784m1.83-.594c-.198 0-.38.018-.548.055a2.724 2.724 0 0 0-.492.168c-.007.061-.01.123-.01.185v.186c0 .242.016.47.047.687.037.21.096.4.176.567.087.16.202.29.344.39.142.093.325.14.548.14a.89.89 0 0 0 .464-.112 1.08 1.08 0 0 0 .474-.687c.037-.15.056-.288.056-.418 0-.378-.087-.666-.26-.864-.167-.198-.434-.297-.8-.297m7.033 2.897c.031-.44.109-.904.233-1.393.13-.495.284-.972.464-1.43.18-.464.378-.892.594-1.282a6.19 6.19 0 0 1 .641-.975h-2.786v-.669h3.64v.641a6.308 6.308 0 0 0-.603.873 10.833 10.833 0 0 0-1.124 2.694 7.894 7.894 0 0 0-.27 1.541h-.789m10.808-1.495c0 .483-.154.873-.464 1.17-.303.298-.768.446-1.393.446-.36 0-.656-.046-.892-.14a1.67 1.67 0 0 1-.566-.37 1.474 1.474 0 0 1-.298-.511 1.9 1.9 0 0 1-.083-.548c0-.329.09-.62.27-.874a2.23 2.23 0 0 1 .64-.613c-.526-.297-.79-.752-.79-1.365a1.54 1.54 0 0 1 .465-1.105 1.71 1.71 0 0 1 .539-.344c.216-.086.458-.13.724-.13a2 2 0 0 1 .79.14 1.5 1.5 0 0 1 .538.362c.137.142.236.303.298.483.061.173.092.343.092.51 0 .329-.083.614-.25.855-.168.235-.36.424-.576.567.638.303.956.792.956 1.467m-2.953.056a1 1 0 0 0 .056.316.86.86 0 0 0 .185.297c.087.093.202.17.344.232.142.056.316.084.52.084.192 0 .356-.025.492-.075a.986.986 0 0 0 .344-.213.887.887 0 0 0 .27-.641c0-.353-.127-.622-.381-.808-.254-.192-.604-.338-1.05-.437a1.6 1.6 0 0 0-.576.511 1.292 1.292 0 0 0-.204.734m2.08-2.944a.782.782 0 0 0-.055-.27.737.737 0 0 0-.177-.278.835.835 0 0 0-.297-.214.988.988 0 0 0-.446-.093 1.1 1.1 0 0 0-.455.084.962.962 0 0 0-.297.213.737.737 0 0 0-.177.279.992.992 0 0 0-.046.297c0 .254.09.492.27.715.185.217.488.375.91.474.235-.136.42-.297.557-.483.142-.186.213-.427.213-.724m8.858.938c0 1.145-.279 2.01-.836 2.591-.557.576-1.396.867-2.517.873l-.028-.65c.694 0 1.251-.136 1.672-.409.427-.278.709-.755.845-1.43a2.701 2.701 0 0 1-.492.167c-.18.037-.368.056-.567.056-.328 0-.603-.046-.826-.14a1.474 1.474 0 0 1-.539-.39 1.604 1.604 0 0 1-.297-.566 2.358 2.358 0 0 1-.093-.669c0-.21.034-.424.102-.64.068-.224.174-.425.316-.604.142-.18.325-.329.548-.446a1.69 1.69 0 0 1 .799-.177c.631 0 1.108.217 1.43.65.322.434.483 1.028.483 1.784m-1.839.566c.198 0 .38-.018.548-.055.173-.038.34-.09.502-.158a1.84 1.84 0 0 0 .009-.177v-.176c0-.242-.019-.47-.056-.688a1.692 1.692 0 0 0-.176-.566.93.93 0 0 0-.344-.38.938.938 0 0 0-.548-.15.83.83 0 0 0-.464.121.974.974 0 0 0-.307.288c-.08.112-.14.239-.176.381a1.924 1.924 0 0 0-.047.409c0 .377.084.665.251.863.173.192.443.288.808.288" style="font-size:9px;font-style:normal;font-variant:normal;font-weight:400;font-stretch:normal;line-height:125%;letter-spacing:0;word-spacing:0;fill:#000;fill-opacity:1;stroke:none;font-family:Ubuntu Mono;-inkscape-font-specification:Ubuntu Mono" transform="translate(1 52.5)"/>
        <path style="fill:#000;fill-opacity:.25837325;stroke:#000;stroke-width:3.66423821;stroke-linecap:butt;stroke-linejoin:round;stroke-miterlimit:4;stroke-opacity:.82296651;stroke-dasharray:none" d="M58.75 65.848a23.818 23.818 0 1 1-47.635 0 23.818 23.818 0 1 1 47.635 0z" transform="translate(14.467 1010.392) scale(.2729)"/>
    </g>
</svg>
